<svg width="94" height="107" viewBox="0 0 94 107" fill="none" xmlns="http://www.w3.org/2000/svg">
<g clip-path="url(#clip0_25_3)">
<path d="M93.437 53.5C93.437 57.199 90.6366 60.1875 86.9376 60.1875H22.842L44.869 82.2145C47.4813 84.8268 47.4813 89.0587 44.869 91.671C43.5524 92.9771 41.8387 93.625 40.1251 93.625C38.4114 93.625 36.7019 92.9719 35.3978 91.6658L1.96033 58.2283C-0.651978 55.616 -0.651978 51.384 1.96033 48.7717L35.3978 15.3342C38.0101 12.7219 42.2421 12.7219 44.8544 15.3342C47.4667 17.9465 47.4667 22.1785 44.8544 24.7908L22.842 46.8125H86.9376C90.6366 46.8125 93.437 49.801 93.437 53.5Z" fill="#A1A1A1"/>
</g>
<defs>
<clipPath id="clip0_25_3">
<rect width="93.625" height="107" fill="white"/>
</clipPath>
</defs>
</svg>
