<svg width="14" height="14" viewBox="0 0 14 14" fill="none" xmlns="http://www.w3.org/2000/svg">
<path d="M6.9717 3.48858C5.04535 3.48858 3.49154 5.04238 3.49154 6.96873C3.49154 8.89508 5.04535 10.4489 6.9717 10.4489C8.89805 10.4489 10.4519 8.89508 10.4519 6.96873C10.4519 5.04238 8.89805 3.48858 6.9717 3.48858ZM6.9717 9.23129C5.72684 9.23129 4.70914 8.21662 4.70914 6.96873C4.70914 5.72084 5.72381 4.70618 6.9717 4.70618C8.21959 4.70618 9.23425 5.72084 9.23425 6.96873C9.23425 8.21662 8.21656 9.23129 6.9717 9.23129ZM11.4059 3.34622C11.4059 3.79752 11.0425 4.15795 10.5942 4.15795C10.1429 4.15795 9.78248 3.79449 9.78248 3.34622C9.78248 2.89795 10.1459 2.53449 10.5942 2.53449C11.0425 2.53449 11.4059 2.89795 11.4059 3.34622ZM13.7109 4.17007C13.6594 3.08271 13.411 2.11953 12.6145 1.32597C11.8209 0.532414 10.8577 0.284048 9.77036 0.229528C8.64969 0.165922 5.29069 0.165922 4.17001 0.229528C3.08568 0.281019 2.1225 0.529385 1.32591 1.32295C0.529324 2.11651 0.283987 3.07968 0.229467 4.16704C0.165861 5.28772 0.165861 8.64672 0.229467 9.76739C0.280958 10.8548 0.529324 11.8179 1.32591 12.6115C2.1225 13.4051 3.08265 13.6534 4.17001 13.7079C5.29069 13.7715 8.64969 13.7715 9.77036 13.7079C10.8577 13.6564 11.8209 13.4081 12.6145 12.6115C13.408 11.8179 13.6564 10.8548 13.7109 9.76739C13.7745 8.64672 13.7745 5.29075 13.7109 4.17007ZM12.2631 10.9698C12.0269 11.5635 11.5695 12.0209 10.9728 12.2601C10.0793 12.6145 7.95911 12.5327 6.9717 12.5327C5.98429 12.5327 3.86106 12.6115 2.97058 12.2601C2.37693 12.0239 1.91957 11.5665 1.68029 10.9698C1.32591 10.0763 1.40769 7.95614 1.40769 6.96873C1.40769 5.98133 1.32894 3.8581 1.68029 2.96761C1.91654 2.37396 2.3739 1.9166 2.97058 1.67732C3.86409 1.32294 5.98429 1.40472 6.9717 1.40472C7.95911 1.40472 10.0823 1.32597 10.9728 1.67732C11.5665 1.91357 12.0238 2.37093 12.2631 2.96761C12.6175 3.86113 12.5357 5.98133 12.5357 6.96873C12.5357 7.95614 12.6175 10.0794 12.2631 10.9698Z" fill="white"/>
</svg>
