<svg width="15" height="16" viewBox="0 0 15 16" fill="none" xmlns="http://www.w3.org/2000/svg">
<path d="M14.3835 6.49422C13.05 6.49741 11.7492 6.08155 10.6649 5.3054V10.7186C10.6646 11.7211 10.3581 12.6997 9.78658 13.5234C9.21504 14.3472 8.40565 14.9767 7.46663 15.328C6.52762 15.6793 5.50373 15.7356 4.53188 15.4893C3.56003 15.2429 2.68655 14.7058 2.02823 13.9496C1.3699 13.1935 0.958122 12.2543 0.847941 11.2578C0.73776 10.2613 0.934432 9.25493 1.41166 8.37322C1.88889 7.49151 2.62392 6.7765 3.51848 6.32381C4.41304 5.87112 5.42448 5.70232 6.41756 5.83999V8.56263C5.96313 8.41969 5.47515 8.42399 5.0233 8.57493C4.57146 8.72587 4.17886 9.01572 3.90158 9.40309C3.6243 9.79047 3.47651 10.2556 3.47931 10.7319C3.48212 11.2083 3.63538 11.6716 3.9172 12.0557C4.19903 12.4398 4.59502 12.725 5.0486 12.8706C5.50219 13.0162 5.99019 13.0148 6.44291 12.8665C6.89564 12.7182 7.28993 12.4306 7.56948 12.0449C7.84903 11.6592 7.99955 11.195 7.99954 10.7186V0.136353H10.6649C10.6631 0.361439 10.6819 0.586218 10.7213 0.80785C10.8139 1.30261 11.0065 1.77327 11.2872 2.19105C11.568 2.60883 11.931 2.96494 12.3541 3.2376C12.9561 3.63562 13.6618 3.84776 14.3835 3.84761V6.49422Z" fill="white"/>
</svg>
