<svg width="16" height="14" viewBox="0 0 16 14" fill="none" xmlns="http://www.w3.org/2000/svg">
<path d="M14.3682 4.00257C14.3781 4.14032 14.3781 4.27811 14.3781 4.41586C14.3781 8.61749 11.1801 13.4587 5.3352 13.4587C3.53448 13.4587 1.86171 12.9372 0.45459 12.032C0.710437 12.0615 0.956411 12.0713 1.2221 12.0713C2.70791 12.0713 4.07568 11.5695 5.16791 10.7134C3.77064 10.6839 2.59969 9.76879 2.19624 8.50927C2.39306 8.53877 2.58984 8.55845 2.7965 8.55845C3.08185 8.55845 3.36723 8.51908 3.63289 8.45023C2.17659 8.15501 1.08432 6.87584 1.08432 5.33097V5.29162C1.50742 5.52778 1.99946 5.67538 2.52094 5.69504C1.66486 5.12431 1.10401 4.15017 1.10401 3.04809C1.10401 2.4577 1.26142 1.91651 1.53695 1.44419C3.10151 3.37281 5.45326 4.6323 8.09034 4.77008C8.04115 4.53392 8.01162 4.28795 8.01162 4.04195C8.01162 2.29042 9.42857 0.863647 11.1899 0.863647C12.105 0.863647 12.9316 1.2474 13.5121 1.86732C14.2304 1.72957 14.9192 1.46388 15.5293 1.09981C15.2931 1.83782 14.7913 2.45773 14.1321 2.8513C14.7717 2.78246 15.3916 2.6053 15.9623 2.35933C15.5294 2.98906 14.9882 3.54991 14.3682 4.00257Z" fill="white"/>
</svg>
