<svg width="17" height="13" viewBox="0 0 17 13" fill="none" xmlns="http://www.w3.org/2000/svg">
<path d="M16.3323 2.68347C16.1421 1.96715 15.5815 1.403 14.8699 1.21154C13.5799 0.863647 8.40716 0.863647 8.40716 0.863647C8.40716 0.863647 3.23448 0.863647 1.94446 1.21154C1.23277 1.40303 0.672248 1.96715 0.482006 2.68347C0.136353 3.98185 0.136353 6.6908 0.136353 6.6908C0.136353 6.6908 0.136353 9.39975 0.482006 10.6981C0.672248 11.4145 1.23277 11.9551 1.94446 12.1466C3.23448 12.4945 8.40716 12.4945 8.40716 12.4945C8.40716 12.4945 13.5798 12.4945 14.8699 12.1466C15.5815 11.9551 16.1421 11.4145 16.3323 10.6981C16.678 9.39975 16.678 6.6908 16.678 6.6908C16.678 6.6908 16.678 3.98185 16.3323 2.68347ZM6.71539 9.15032V4.23128L11.0387 6.69086L6.71539 9.15032Z" fill="white"/>
</svg>
